<svg xmlns="http://www.w3.org/2000/svg" width="20.672" height="18.091" data-name="Group 7079"><g data-name="Group 7079"><path fill="#fff" d="M20.672 1.342a1.344 1.344 0 0 1-1.342 1.342H1.342A1.344 1.344 0 0 1 0 1.342 1.344 1.344 0 0 1 1.342 0h17.987a1.344 1.344 0 0 1 1.342 1.342z" data-name="Path 32685"/></g><g data-name="Group 7080"><path fill="#fff" d="M16.319 9.059a1.344 1.344 0 0 1-1.342 1.342H1.342A1.344 1.344 0 0 1 0 9.059a1.344 1.344 0 0 1 1.342-1.343h13.634a1.344 1.344 0 0 1 1.342 1.343z" data-name="Path 32686"/></g><g data-name="Group 7081"><path fill="#fff" d="M9.1 16.749a1.344 1.344 0 0 1-1.342 1.342H1.342A1.344 1.344 0 0 1 0 16.749a1.344 1.344 0 0 1 1.342-1.343h6.413A1.344 1.344 0 0 1 9.1 16.749z" data-name="Path 32687"/></g></svg>