<svg height="512" viewBox="0 0 58 58" width="512" xmlns="http://www.w3.org/2000/svg"><g id="001---Bilingual"><path id="Shape" d="m30.91 52-6.76-4.23c-1.3148445-.7279677-2.1362401-2.1071481-2.15-3.61v-3.16c.0008916-.2771651.1167768-.5415282.32-.73 1.6796815-1.6546646 2.8908005-3.7249534 3.51-6 .0592432-.2512051.213318-.4697763.43-.61.4465162-.284252.7235534-.7709391.74-1.3v-3.45c-.0536708-.4653009-.2958546-.8882188-.67-1.17-.2094794-.1890592-.329333-.4578218-.33-.74v-5c0-.23-.54-7-9-7s-9 6.77-9 7.06v4.94c.00217472.2856593-.11792402.558611-.33.75-.37179669.2794573-.61371786.6983059-.67 1.16v3.45c.00313751.5433413.2818066 1.0479583.74 1.34.21668201.1402237.37075681.3587949.43.61.61519336 2.2622368 1.82754283 4.3173591 3.51 5.95.2057808.1908345.3218991.459358.32.74v3.16c-.0192327 1.5251394-.8657199 2.9193537-2.21 3.64l-6.65 4.2c-1.92083004 1.0266-3.12579875 3.0220896-3.14 5.2v.8h34.0000033l-.0000033-.8c.0022698-2.169036-1.1838107-4.1650291-3.09-5.2z" fill="#454544"/><path id="Shape" d="m54 27h-14c-2.209139 0-4 1.790861-4 4v2l-6 4 6 4v2c0 2.209139 1.790861 4 4 4h14c2.209139 0 4-1.790861 4-4v-12c0-2.209139-1.790861-4-4-4zm-2 15c.5522847 0 1 .4477153 1 1s-.4477153 1-1 1c-2.08 0-3.27.13-5-.69-1.71.82-2.92.69-5 .69-.5522847 0-1-.4477153-1-1s.4477153-1 1-1c1.0008469.0659262 2.005765.0324289 3-.1-.7107395-.7209994-1.2566237-1.5875907-1.6-2.54-.1696351-.5140008.1004873-1.069673.6094844-1.2537784.5089971-.1841053 1.0720873.0701922 1.2705156.5737784.3326478.9256839.9309438 1.7326878 1.72 2.32 1.2590292-.9442719 2-2.4262135 2-4v-2h-7c-.5522847 0-1-.4477153-1-1s.4477153-1 1-1h4v-2c0-.5522847.4477153-1 1-1s1 .4477153 1 1v2h4c.5522847 0 1 .4477153 1 1s-.4477153 1-1 1h-1v2c-.0023473 1.8286657-.720198 3.5838107-2 4.89.9926995.1491733 1.9990415.1860725 3 .11z" fill="#454544"/><path id="Shape" d="m51 9v1h-8v-1c0-2.209139 1.790861-4 4-4s4 1.790861 4 4z" fill="#454544"/><path id="Shape" d="m54 0h-14c-2.209139 0-4 1.790861-4 4v2l-6 4 6 4v2c0 2.209139 1.790861 4 4 4h14c2.209139 0 4-1.790861 4-4v-12c0-2.209139-1.790861-4-4-4zm-1 16c0 .5522847-.4477153 1-1 1s-1-.4477153-1-1v-4h-8v4c0 .5522847-.4477153 1-1 1s-1-.4477153-1-1v-7c0-3.3137085 2.6862915-6 6-6s6 2.6862915 6 6z" fill="#454544"/></g></svg>