<svg id="Capa_1" enable-background="new 0 0 512.134 512.134" height="512" viewBox="0 0 512.134 512.134" width="512" xmlns="http://www.w3.org/2000/svg">
    <g>
        <path d="m159.504 118.133c-17.204 0-33.687 7.542-45 20.354v81.764c13.543-7.813 29.069-12.118 45-12.118s31.457 4.305 45 12.118v-81.764c-11.313-12.811-27.795-20.354-45-20.354z" fill="#33A6CC"/>
        <path d="m279.504 118.133c-17.204 0-33.687 7.542-45 20.354v81.764c13.543-7.813 29.069-12.118 45-12.118s31.457 4.305 45 12.118v-81.764c-11.313-12.811-27.795-20.354-45-20.354z" fill="#33A6CC"/>
        <path d="m481.494 241.989-65.559-47.983-2.94-23.351c-13.432-106.681-111.149-182.546-217.832-169.114-106.926 13.463-182.578 110.891-169.111 217.832 8.364 66.431 50.187 123.614 110.29 151.997l-18.423 92.369c-1.611 8.081 3.596 15.948 11.664 17.622l146.875 30.461c4.03.835 8.206-.023 11.566-2.341 3.374-2.328 5.647-5.935 6.293-9.982l12.984-81.364h122.204c4.359 0 8.502-1.896 11.352-5.195 2.849-3.299 4.123-7.675 3.488-11.987l-14.979-101.879 51.264-32.287c4.204-2.647 6.824-7.205 6.997-12.169.172-4.966-2.124-9.695-6.133-12.629zm-126.99 11.144c0 14.319-18.12 20.388-26.827 9.204-12.959-16.574-30.538-24.204-48.173-24.204-18.785 0-36.729 8.972-48 24-5.975 7.981-18.039 7.976-24 0-11.271-15.028-29.215-24-48-24s-36.729 8.972-48 24c-8.704 11.616-27 5.21-27-9v-120c0-3.209 1.13-6.505 3-9 16.907-22.542 43.823-36 72-36 22.214 0 43.64 8.37 60 22.956 16.36-14.586 37.786-22.956 60-22.956 28.177 0 55.093 13.458 72 36 1.975 2.635 3 5.967 3 9z" fill="#33A6CC"/>
    </g>
</svg>