<svg xmlns="http://www.w3.org/2000/svg" width="9.857" height="16.903" viewBox="0 0 9.857 16.903">
  <g id="Group_6" data-name="Group 6" transform="translate(-42.259 42.483) rotate(-90)">
    <path id="Path_24644" data-name="Path 24644" d="M9.857,1.406a.551.551,0,0,0-.169-.39L8.841.169a.533.533,0,0,0-.779,0L.169,8.062a.533.533,0,0,0,0,.779l7.893,7.893a.533.533,0,0,0,.779,0l.847-.847a.533.533,0,0,0,0-.779L3.032,8.452,9.688,1.8A.584.584,0,0,0,9.857,1.406Z" transform="translate(42.483 42.259) rotate(90)" fill="#33A6CC"/>
  </g>
</svg>
